<svg width="391" height="121" xmlns="http://www.w3.org/2000/svg">
 <style type="text/css">.st0{fill:#AFAEAE;}
	.st1{fill:#859ECD;}
	.st2{fill:#FFFFFF;}
	.st3{fill:#F15F71;}
	.st4{opacity:0.28;clip-path:url(#SVGID_2_);}
	.st5{clip-path:url(#SVGID_4_);fill:#F15F71;}
	.st6{clip-path:url(#SVGID_4_);fill:none;stroke:#C6C5C4;stroke-width:8.800000e-02;stroke-miterlimit:10;}
	.st7{clip-path:url(#SVGID_2_);}
	.st8{font-family:'MyriadPro-Regular';}
	.st9{font-size:1.6px;}</style>

 <g>
  <title>background</title>
  <rect fill="none" id="canvas_background" height="123" width="393" y="-1" x="-1"/>
 </g>
 <g>
  <title>Layer 1</title>
  <g id="svg_1">
   <path id="svg_2" d="m344.9,87.1l-265.4,0l0,-59l265.4,0l0,59zm-261.9,-3.5l258.4,0l0,-52l-258.4,0l0,52z" class="st0"/>
  </g>
  <rect id="svg_3" height="55.5" width="47.1" class="st1" y="29.9" x="30"/>
  <path id="svg_4" d="m36.2,38.1l6.5,-0.1c1.2,0 2.4,0.1 3.6,0.4c1.2,0.3 2.3,0.8 3.3,1.5c1,0.7 1.8,1.6 2.4,2.7c0.6,1.1 0.9,2.5 0.9,4.2c0,1.6 -0.3,2.9 -0.9,4c-0.6,1.1 -1.4,2.1 -2.3,2.8c-1,0.7 -2,1.3 -3.3,1.6c-1.2,0.4 -2.4,0.5 -3.6,0.5l-6.5,0.1l-0.1,-17.7zm6.1,15c0.8,0 1.7,-0.1 2.5,-0.3s1.6,-0.5 2.3,-1c0.7,-0.5 1.2,-1.1 1.7,-1.9c0.4,-0.8 0.6,-1.8 0.6,-3c0,-1.3 -0.2,-2.3 -0.7,-3.1c-0.4,-0.8 -1,-1.4 -1.7,-1.9c-0.7,-0.4 -1.5,-0.8 -2.3,-0.9c-0.8,-0.2 -1.7,-0.2 -2.5,-0.2l-2.7,0l0.1,12.4l2.7,-0.1z" class="st2"/>
  <path id="svg_5" d="m65.2,41.8c-0.3,-0.4 -0.8,-0.8 -1.4,-1.1c-0.6,-0.3 -1.2,-0.4 -1.9,-0.4c-0.4,0 -0.7,0.1 -1.1,0.1c-0.4,0.1 -0.7,0.2 -1,0.4c-0.3,0.2 -0.6,0.4 -0.7,0.7c-0.2,0.3 -0.3,0.7 -0.3,1.1c0,0.4 0.1,0.7 0.3,1c0.2,0.3 0.4,0.5 0.7,0.7c0.3,0.2 0.7,0.4 1.1,0.5c0.4,0.1 0.9,0.3 1.4,0.4c0.6,0.2 1.2,0.4 1.8,0.6c0.6,0.2 1.2,0.5 1.7,0.9c0.5,0.4 0.9,0.9 1.3,1.4c0.3,0.6 0.5,1.3 0.5,2.2c0,0.9 -0.2,1.8 -0.5,2.5c-0.4,0.7 -0.8,1.3 -1.4,1.8c-0.6,0.5 -1.3,0.8 -2.1,1.1c-0.8,0.2 -1.6,0.4 -2.5,0.4c-1.2,0 -2.3,-0.2 -3.4,-0.6c-1.1,-0.4 -2,-1 -2.8,-1.9l2.3,-2.1c0.4,0.6 1,1.1 1.8,1.4c0.7,0.3 1.5,0.5 2.2,0.5c0.4,0 0.8,-0.1 1.1,-0.1c0.4,-0.1 0.7,-0.2 1.1,-0.5c0.3,-0.2 0.6,-0.5 0.8,-0.8c0.2,-0.3 0.3,-0.7 0.3,-1.2c0,-0.5 -0.1,-0.8 -0.3,-1.2c-0.2,-0.3 -0.5,-0.6 -0.9,-0.8c-0.4,-0.2 -0.8,-0.4 -1.3,-0.6c-0.5,-0.2 -1,-0.3 -1.6,-0.5c-0.5,-0.2 -1.1,-0.4 -1.6,-0.6c-0.5,-0.2 -1,-0.5 -1.5,-0.9c-0.4,-0.4 -0.8,-0.8 -1.1,-1.4c-0.3,-0.6 -0.4,-1.2 -0.4,-2.1c0,-0.9 0.2,-1.7 0.6,-2.3c0.4,-0.6 0.9,-1.2 1.5,-1.6c0.6,-0.4 1.3,-0.7 2.1,-1c0.8,-0.2 1.6,-0.3 2.4,-0.3c0.9,0 1.8,0.1 2.8,0.5c0.9,0.3 1.8,0.8 2.5,1.4l-2.5,2.4z" class="st2"/>
  <path id="svg_6" d="m59.9,58.7l3,0l8.4,18.7l-3.9,0l-1.8,-4.3l-8.3,0.1l-1.7,4.3l-3.8,0l8.1,-18.8zm4.5,11.5l-3,-7.6l-3,7.6l6,0z" class="st2"/>
  <path id="svg_7" d="m45.2,73.1l-8.4,0l0,-2.7l7.7,-11.7l3.7,0l0,11.8l2.5,0l0,2.7l-2.5,0l0,3.8l-3,0l0,-3.9zm0,-10.8l0,0l-5.2,8.2l5.2,0l0,-8.2z" class="st2"/>
  <path id="svg_8" d="m323.8,8.8c0,2.7 -1.8,4.5 -4.6,4.5c-2.9,0 -4.6,-1.8 -4.6,-4.6c0,-2.6 1.8,-4.3 4.6,-4.3c2.9,-0.1 4.6,1.6 4.6,4.4m-7.5,-0.1c0,2 1.2,3.3 3,3.3c1.8,0 3,-1.3 3,-3.3c0,-0.9 -0.2,-1.6 -0.6,-2.2c-0.6,-0.7 -1.3,-1.1 -2.3,-1.1c-1.9,0.1 -3.1,1.4 -3.1,3.3" class="st2"/>
  <path id="svg_9" d="m327.9,6.2c0.3,-1.2 1.4,-1.9 3,-1.9c2,0 3.1,0.9 3.1,2.7l0,4.9l1.5,0l0,1.1l-4.7,0l0,-1.1l1.6,0l0,-4.4c0,-1.1 -0.9,-2 -2,-2c-1.6,0 -2.5,1 -2.5,2.7l0,3.7l1.5,0l0,1.1l-4.8,0l0,-1.1l1.7,0l0,-6.3l-1.7,0l0,-1.1l3.2,0l0,1.7l0.1,0z" class="st2"/>
  <path id="svg_10" d="m345,10.3c-0.1,0.4 -0.2,0.8 -0.5,1.2c-0.7,1 -1.8,1.5 -3.5,1.5c-1.7,0 -2.9,-0.5 -3.7,-1.6c-0.5,-0.7 -0.8,-1.6 -0.8,-2.6c0,-2.7 1.6,-4.4 4.3,-4.4c2.1,0 3.5,0.9 3.9,2.6c0.2,0.6 0.2,1 0.2,2l-7,0c0.1,1.7 1.2,2.8 3,2.8c1.3,0 2.3,-0.6 2.5,-1.6l1.6,0l0,0.1zm-1.3,-2.3c-0.1,-1.6 -1.1,-2.5 -2.7,-2.5c-1.6,0 -2.7,0.9 -2.9,2.5l5.6,0z" class="st2"/>
  <path id="svg_11" d="m228.7,8.8c0,2.7 -1.8,4.5 -4.6,4.5c-2.9,0 -4.6,-1.8 -4.6,-4.6c0,-2.6 1.8,-4.3 4.6,-4.3c2.9,-0.1 4.6,1.6 4.6,4.4m-7.5,-0.1c0,2 1.2,3.3 3,3.3c1.8,0 3,-1.3 3,-3.3c0,-0.9 -0.2,-1.6 -0.6,-2.2c-0.6,-0.7 -1.3,-1.1 -2.3,-1.1c-1.9,0.1 -3.1,1.4 -3.1,3.3" class="st2"/>
  <path id="svg_12" d="m232.9,6.4c0.2,-1.3 1.3,-2.1 2.7,-2.1c0.3,0 0.5,0 0.7,0.1l0,1.3c-0.3,-0.2 -0.5,-0.3 -0.9,-0.3c-0.7,0 -1.3,0.3 -1.8,0.7c-0.6,0.5 -0.8,1.3 -0.8,2.4l0,3.3l1.9,0l0,1.1l-5.1,0l0,-1.1l1.6,0l0,-6.2l-1.6,0l0,-1.1l3.2,0l0,1.9l0.1,0z" class="st2"/>
  <path id="svg_13" d="m240.4,6.4c0.2,-1.3 1.3,-2.1 2.7,-2.1c0.3,0 0.5,0 0.7,0.1l0,1.3c-0.3,-0.2 -0.5,-0.3 -0.9,-0.3c-0.7,0 -1.3,0.3 -1.8,0.7c-0.6,0.5 -0.8,1.3 -0.8,2.4l0,3.3l1.9,0l0,1.1l-5.1,0l0,-1.1l1.6,0l0,-6.2l-1.6,0l0,-1.1l3.2,0l0,1.9l0.1,0z" class="st2"/>
  <path id="svg_14" d="m253,10.3c-0.1,0.4 -0.2,0.8 -0.5,1.2c-0.7,1 -1.8,1.5 -3.5,1.5c-1.7,0 -2.9,-0.5 -3.7,-1.6c-0.5,-0.7 -0.8,-1.6 -0.8,-2.6c0,-2.7 1.6,-4.4 4.3,-4.4c2.1,0 3.5,0.9 3.9,2.6c0.2,0.6 0.2,1 0.2,2l-7,0c0.1,1.7 1.2,2.8 3,2.8c1.3,0 2.3,-0.6 2.5,-1.6l1.6,0l0,0.1zm-1.3,-2.3c-0.1,-1.6 -1.1,-2.5 -2.7,-2.5c-1.6,0 -2.7,0.9 -2.9,2.5l5.6,0z" class="st2"/>
  <polygon id="svg_15" points="257.2,11.9 258.7,11.9 258.7,13 254,13 254,11.9 255.5,11.9 255.5,2.8 254,2.8 254,1.6 257.2,1.6 " class="st2"/>
  <path id="svg_16" d="m260,6.9c0.2,-1.8 1.4,-2.7 3.8,-2.7c1.4,0 2.4,0.3 3,0.9c0.5,0.5 0.7,1.1 0.7,2.4l0,4.3l1.7,0l0,1.1l-3,0l0,-1.8c-0.5,1.4 -1.6,2 -3.4,2c-2.1,0 -3.4,-0.9 -3.4,-2.6c0,-1.1 0.6,-1.9 1.6,-2.4c0.7,-0.3 1.7,-0.4 3.3,-0.4c0.2,0 0.6,0 1.7,0l0,-0.2c0,-0.9 -0.1,-1.3 -0.5,-1.6c-0.4,-0.3 -0.9,-0.5 -1.6,-0.5c-1.4,0 -2.1,0.5 -2.2,1.5l-1.7,0zm4.5,2c-1.3,0 -2,0.1 -2.5,0.4c-0.4,0.3 -0.7,0.7 -0.7,1.2c0,0.9 0.7,1.5 1.8,1.5c1,0 1.8,-0.3 2.3,-0.9c0.4,-0.5 0.5,-0.9 0.6,-2.1c-0.5,-0.1 -0.9,-0.1 -1.5,-0.1" class="st2"/>
  <path id="svg_17" d="m272.2,10.5c0,0.6 0,0.8 0.2,1c0.1,0.2 0.4,0.3 0.7,0.3c0.4,0 0.7,-0.2 0.8,-0.6c0.1,-0.2 0.1,-0.5 0.1,-1.1l1.2,0c0,1 -0.1,1.4 -0.3,1.9c-0.4,0.6 -1.1,0.9 -2,0.9c-0.6,0 -1.1,-0.2 -1.5,-0.5c-0.5,-0.4 -0.7,-1 -0.7,-2.1l0,-4.7l-1.8,0l0,-1.1l1.8,0l0,-2.5l1.5,-0.5l0,3l2.9,0l0,1.1l-2.9,0l0,4.9z" class="st2"/>
  <polygon id="svg_18" points="279.5,11.9 280.8,11.9 280.8,13 276.3,13 276.3,11.9 277.8,11.9 277.8,5.7 276.3,5.7 276.3,4.5   279.5,4.5 " class="st2"/>
  <path id="svg_19" d="m291.1,8.8c0,2.7 -1.8,4.5 -4.6,4.5c-2.9,0 -4.6,-1.8 -4.6,-4.6c0,-2.6 1.8,-4.3 4.6,-4.3c2.8,-0.1 4.6,1.6 4.6,4.4m-7.6,-0.1c0,2 1.2,3.3 3,3.3c1.8,0 3,-1.3 3,-3.3c0,-0.9 -0.2,-1.6 -0.6,-2.2c-0.6,-0.7 -1.3,-1.1 -2.3,-1.1c-1.9,0.1 -3.1,1.4 -3.1,3.3" class="st2"/>
  <path id="svg_20" d="m295.1,6.2c0.3,-1.2 1.4,-1.9 3,-1.9c2,0 3.1,0.9 3.1,2.7l0,4.9l1.5,0l0,1.1l-4.7,0l0,-1.1l1.5,0l0,-4.4c0,-1.1 -0.9,-2 -2,-2c-1.6,0 -2.5,1 -2.5,2.7l0,3.7l1.7,0l0,1.1l-4.7,0l0,-1.1l1.7,0l0,-6.3l-1.7,0l0,-1.1l3.2,0l0,1.7l-0.1,0z" class="st2"/>
  <path id="svg_21" d="m216.8,10.3c-0.4,1.1 -1.4,1.7 -2.7,1.7c-1.2,0 -2.2,-0.7 -2.7,-1.7c-0.2,-0.5 -0.3,-1 -0.3,-1.6c0,-0.7 0.1,-1.3 0.4,-1.8c0.5,-0.9 1.4,-1.5 2.6,-1.5c1,0 1.8,0.4 2.3,1.1c0.1,0.1 0.2,0.3 0.3,0.6l1.7,0c-0.6,-1.9 -2.2,-2.9 -4.4,-2.9c-2.1,0 -3.7,1 -4.3,2.6c-0.2,0.5 -0.3,1.1 -0.3,1.7c0,0.6 0.1,1.1 0.2,1.6c0.6,1.8 2.1,2.9 4.4,2.9c2.2,0 3.8,-1.1 4.3,-2.9l-1.5,0l0,0.2z" class="st2"/>
  <path id="svg_22" d="m310.5,8.8c0,0.6 -0.5,1.1 -1.1,1.1c-0.6,0 -1.1,-0.5 -1.1,-1.1c0,-0.6 0.5,-1.1 1.1,-1.1c0.6,0 1.1,0.5 1.1,1.1" class="st2"/>
  <path id="svg_23" d="m313.4,5.9c0,0.6 -0.5,1.1 -1.1,1.1c-0.6,0 -1.1,-0.5 -1.1,-1.1c0,-0.6 0.5,-1.1 1.1,-1.1c0.6,0 1.1,0.5 1.1,1.1" class="st2"/>
  <path id="svg_24" d="m307.6,11.6c0,0.6 -0.5,1.1 -1.1,1.1c-0.6,0 -1.1,-0.5 -1.1,-1.1c0,-0.6 0.5,-1.1 1.1,-1.1c0.6,0 1.1,0.5 1.1,1.1" class="st2"/>
  <path id="svg_25" d="m19.2,37c0,1.4 -1.1,2.5 -2.4,2.5c-1.3,0 -2.4,-1.1 -2.4,-2.5c0,-1.4 1.1,-2.5 2.4,-2.5c1.3,0 2.4,1.1 2.4,2.5" class="st1"/>
  <path id="svg_26" d="m13.4,44.1c0,1.4 -1.1,2.5 -2.4,2.5c-1.3,0 -2.4,-1.1 -2.4,-2.5c0,-1.4 1.1,-2.5 2.4,-2.5c1.3,0 2.4,1.1 2.4,2.5" class="st1"/>
  <path id="svg_27" d="m7.3,51.4c0,1.4 -1.1,2.5 -2.4,2.5c-1.3,0 -2.4,-1.1 -2.4,-2.5c0,-1.4 1.1,-2.5 2.4,-2.5c1.3,0.1 2.4,1.2 2.4,2.5" class="st1"/>
  <g stroke="null" canvas-opacity="1" id="svg_28">
   <path stroke="null" canvas="#999999" id="svg_29" d="m119,-61.6c-0.7,0.4 -1.5,0.6 -2.4,0.6c-1,0 -1.8,-0.2 -2.6,-0.7c-0.8,-0.5 -1.4,-1.1 -1.9,-2c-0.5,-0.8 -0.9,-1.8 -1.2,-2.9c-0.3,-1.1 -0.4,-2.4 -0.4,-3.7c0,-1.3 0.1,-2.6 0.4,-3.7c0.3,-1.1 0.7,-2.1 1.2,-2.9c0.5,-0.8 1.2,-1.5 1.9,-1.9c0.8,-0.5 1.6,-0.7 2.6,-0.7c0.8,0 1.6,0.2 2.3,0.5c0.7,0.3 1.3,0.9 1.8,1.7l-1.1,1.2c-0.4,-0.6 -0.8,-1 -1.3,-1.3c-0.5,-0.3 -1,-0.4 -1.6,-0.4c-0.7,0 -1.4,0.2 -1.9,0.6c-0.5,0.4 -1,1 -1.4,1.7c-0.4,0.7 -0.6,1.5 -0.8,2.5c-0.2,0.9 -0.3,1.9 -0.3,3s0.1,2 0.3,3c0.2,0.9 0.5,1.7 0.8,2.4c0.4,0.7 0.8,1.3 1.4,1.7c0.5,0.4 1.2,0.6 1.9,0.6c0.6,0 1.2,-0.2 1.7,-0.5c0.5,-0.4 0.9,-0.8 1.3,-1.4l1.1,1.1c-0.5,0.5 -1.1,1.1 -1.8,1.5z" class="st2"/>
   <path stroke="null" canvas="#999999" id="svg_30" d="m143.9,-70.3c0,1.4 -0.1,2.6 -0.4,3.8c-0.3,1.1 -0.7,2.1 -1.2,2.9c-0.5,0.8 -1.1,1.5 -1.8,1.9c-0.7,0.5 -1.5,0.7 -2.5,0.7c-0.9,0 -1.7,-0.2 -2.5,-0.7c-0.7,-0.4 -1.3,-1.1 -1.9,-1.9c-0.5,-0.8 -0.9,-1.8 -1.2,-2.9c-0.3,-1.1 -0.4,-2.4 -0.4,-3.8c0,-1.4 0.1,-2.6 0.4,-3.8c0.3,-1.1 0.6,-2.1 1.1,-2.9c0.5,-0.8 1.1,-1.4 1.8,-1.9c0.7,-0.5 1.6,-0.7 2.5,-0.7c0.9,0 1.7,0.2 2.5,0.7c0.7,0.5 1.3,1.1 1.8,1.9c0.5,0.8 0.9,1.8 1.2,2.9c0.5,1.2 0.6,2.5 0.6,3.8zm-1.8,0c0,-1.1 -0.1,-2.1 -0.2,-3c-0.2,-0.9 -0.4,-1.7 -0.8,-2.4c-0.3,-0.7 -0.8,-1.2 -1.3,-1.6c-0.5,-0.4 -1.1,-0.6 -1.7,-0.6c-0.7,0 -1.3,0.2 -1.8,0.6c-0.5,0.4 -0.9,0.9 -1.3,1.6c-0.3,0.7 -0.6,1.5 -0.8,2.4s-0.2,1.9 -0.2,3c0,1.1 0.1,2.1 0.2,3s0.4,1.8 0.8,2.5c0.3,0.7 0.8,1.3 1.3,1.7c0.5,0.4 1.1,0.6 1.8,0.6c0.7,0 1.3,-0.2 1.8,-0.6c0.5,-0.4 0.9,-1 1.3,-1.7c0.3,-0.7 0.6,-1.5 0.8,-2.5c0,-0.9 0.1,-1.9 0.1,-3z" class="st2"/>
   <path stroke="null" canvas="#999999" id="svg_31" d="m157.2,-61.4l0,-17.7l1.8,0l0,16.1l5.1,0l0,1.6l-6.9,0z" class="st2"/>
   <path stroke="null" canvas="#999999" id="svg_32" d="m186.4,-70.3c0,1.4 -0.1,2.6 -0.4,3.8c-0.3,1.1 -0.7,2.1 -1.2,2.9c-0.5,0.8 -1.1,1.5 -1.8,1.9c-0.7,0.5 -1.5,0.7 -2.5,0.7c-0.9,0 -1.7,-0.2 -2.5,-0.7c-0.7,-0.4 -1.3,-1.1 -1.9,-1.9c-0.5,-0.8 -0.9,-1.8 -1.2,-2.9c-0.3,-1.1 -0.4,-2.4 -0.4,-3.8c0,-1.4 0.1,-2.6 0.4,-3.8c0.3,-1.1 0.6,-2.1 1.1,-2.9c0.5,-0.8 1.1,-1.4 1.8,-1.9c0.7,-0.5 1.6,-0.7 2.5,-0.7c0.9,0 1.7,0.2 2.5,0.7c0.7,0.5 1.3,1.1 1.8,1.9c0.5,0.8 0.9,1.8 1.2,2.9c0.4,1.2 0.6,2.5 0.6,3.8zm-1.9,0c0,-1.1 -0.1,-2.1 -0.2,-3c-0.2,-0.9 -0.4,-1.7 -0.8,-2.4c-0.3,-0.7 -0.8,-1.2 -1.3,-1.6c-0.5,-0.4 -1.1,-0.6 -1.7,-0.6c-0.7,0 -1.3,0.2 -1.8,0.6c-0.5,0.4 -0.9,0.9 -1.3,1.6c-0.3,0.7 -0.6,1.5 -0.8,2.4s-0.2,1.9 -0.2,3c0,1.1 0.1,2.1 0.2,3s0.4,1.8 0.8,2.5c0.3,0.7 0.8,1.3 1.3,1.7c0.5,0.4 1.1,0.6 1.8,0.6c0.7,0 1.3,-0.2 1.8,-0.6c0.5,-0.4 0.9,-1 1.3,-1.7c0.3,-0.7 0.6,-1.5 0.8,-2.5c0.1,-0.9 0.1,-1.9 0.1,-3z" class="st2"/>
   <path stroke="null" canvas="#999999" id="svg_33" d="m211.8,-61.4l0,-15.4l-0.1,0l-4.3,15.4l-1.6,0l-4.3,-15.4l-0.1,0l0,15.4l-1.7,0l0,-17.7l2.6,0l4.2,15l0.1,0l4.2,-15l2.7,0l0,17.7l-1.7,0z" class="st2"/>
   <path stroke="null" canvas="#999999" id="svg_34" d="m236.7,-66.2c0,0.9 -0.1,1.7 -0.4,2.3c-0.3,0.6 -0.7,1.1 -1.1,1.5c-0.5,0.4 -0.9,0.6 -1.5,0.8c-0.5,0.2 -1.1,0.2 -1.6,0.2l-4.5,0l0,-17.7l4,0c0.5,0 1,0.1 1.6,0.2c0.5,0.1 1,0.4 1.5,0.7c0.4,0.3 0.8,0.8 1.1,1.3c0.3,0.6 0.4,1.3 0.4,2.1c0,0.6 -0.1,1.1 -0.2,1.6c-0.1,0.4 -0.3,0.8 -0.6,1.2c-0.2,0.3 -0.5,0.6 -0.8,0.8c-0.3,0.2 -0.6,0.4 -0.9,0.5l0,0c0.3,0.1 0.7,0.2 1,0.4c0.4,0.2 0.7,0.5 1,0.8c0.3,0.4 0.6,0.8 0.8,1.4c0.1,0.5 0.2,1.1 0.2,1.9zm-2.2,-8.3c0,-0.6 -0.1,-1.1 -0.3,-1.5c-0.2,-0.4 -0.4,-0.7 -0.7,-1c-0.3,-0.2 -0.6,-0.4 -1,-0.5c-0.4,-0.1 -0.7,-0.1 -1.1,-0.1l-2.2,0l0,6.3l2.2,0c0.4,0 0.7,-0.1 1.1,-0.2c0.4,-0.1 0.7,-0.3 1,-0.6c0.3,-0.3 0.5,-0.6 0.7,-1c0.2,-0.4 0.3,-0.9 0.3,-1.4zm0.5,8.2c0,-0.7 -0.1,-1.2 -0.3,-1.7c-0.2,-0.5 -0.5,-0.8 -0.8,-1.1c-0.3,-0.3 -0.7,-0.5 -1.1,-0.6c-0.4,-0.1 -0.8,-0.2 -1.1,-0.2l-2.5,0l0,7.1l2.5,0c0.5,0 0.9,-0.1 1.3,-0.2c0.4,-0.1 0.8,-0.3 1.1,-0.6s0.5,-0.6 0.7,-1.1c0.1,-0.5 0.2,-1 0.2,-1.6z" class="st2"/>
   <path stroke="null" canvas="#999999" id="svg_35" d="m249.7,-61.4l0,-17.7l1.8,0l0,17.7l-1.8,0z" class="st2"/>
   <path stroke="null" canvas="#999999" id="svg_36" d="m273.1,-61.4l-1.1,-4.4l-5.5,0l-1.1,4.4l-1.8,0l4.5,-17.7l2.4,0l4.4,17.7l-1.8,0zm-3.7,-16.1l0,0l-2.6,10.3l5,0l-2.4,-10.3z" class="st2"/>
  </g>
  <text font-weight="bold" xml:space="preserve" text-anchor="start" font-family="sans-serif" font-size="24" id="svg_1673" y="-136.0625" x="-57.5" stroke-width="0" stroke="#000" fill="#000000">Tean 7</text>
  <text stroke="#ffffff" opacity="0.8" font-style="normal" font-weight="bold" xml:space="preserve" text-anchor="start" font-family="sans-serif" font-size="20" id="svg_1675" y="66.9375" x="159.5" stroke-width="0" fill="#ffffff">TEAM-7</text>
 </g>
</svg>